inDegrees=no
num_controls=7
num_derivatives=13
num_iterations=85
num_multipliers=7
num_parameters=0
num_slacks=7
num_states=26
objective=0.454556
objective_accelerations=0.044692
objective_balance=0.000797
objective_effort=0.036478
objective_height=0.366500
objective_ligament=0.006089
solver_duration=976.651405
status=Solve_Succeeded
success=true
DataType=double
version=3
OpenSimVersion=4.5
endheader
time	/jointset/ground_pelvis/pelvis_tilt/value	/jointset/ground_pelvis/pelvis_tx/value	/jointset/ground_pelvis/pelvis_ty/value	/jointset/hip_r/hip_flexion_r/value	/jointset/hip_r/hip_adduction_r/value	/jointset/hip_r/hip_rotation_r/value	/jointset/back/lumbar_extension/value	/jointset/patellofemoral_r/patellar_flexion_r/value	/jointset/knee_r/knee_flexion_r/value	/jointset/knee_r/knee_adduction_r/value	/jointset/knee_r/knee_rotation_r/value	/jointset/ankle_r/ankle_angle_r/value	/jointset/subtalar_r/subtalar_angle_r/value	/jointset/ground_pelvis/pelvis_tilt/speed	/jointset/ground_pelvis/pelvis_tx/speed	/jointset/ground_pelvis/pelvis_ty/speed	/jointset/hip_r/hip_flexion_r/speed	/jointset/hip_r/hip_adduction_r/speed	/jointset/hip_r/hip_rotation_r/speed	/jointset/back/lumbar_extension/speed	/jointset/patellofemoral_r/patellar_flexion_r/speed	/jointset/knee_r/knee_flexion_r/speed	/jointset/knee_r/knee_adduction_r/speed	/jointset/knee_r/knee_rotation_r/speed	/jointset/ankle_r/ankle_angle_r/speed	/jointset/subtalar_r/subtalar_angle_r/speed	/forceset/tau_hip_flexion_r	/forceset/tau_hip_adduction_r	/forceset/tau_hip_rotation_r	/forceset/tau_knee_flexion_r	/forceset/tau_ankle_angle_r	/forceset/tau_subtalar_angle_r	/forceset/tau_lumbar_extension	lambda_cid13_p0	lambda_cid14_p0	lambda_cid14_p1	lambda_cid14_p2	lambda_cid14_p3	lambda_cid14_p4	lambda_cid14_p5	/jointset/ground_pelvis/pelvis_tilt/accel	/jointset/ground_pelvis/pelvis_tx/accel	/jointset/ground_pelvis/pelvis_ty/accel	/jointset/hip_r/hip_flexion_r/accel	/jointset/hip_r/hip_adduction_r/accel	/jointset/hip_r/hip_rotation_r/accel	/jointset/back/lumbar_extension/accel	/jointset/patellofemoral_r/patellar_flexion_r/accel	/jointset/knee_r/knee_flexion_r/accel	/jointset/knee_r/knee_adduction_r/accel	/jointset/knee_r/knee_rotation_r/accel	/jointset/ankle_r/ankle_angle_r/accel	/jointset/subtalar_r/subtalar_angle_r/accel	gamma_cid13_p0	gamma_cid14_p0	gamma_cid14_p1	gamma_cid14_p2	gamma_cid14_p3	gamma_cid14_p4	gamma_cid14_p5
1	-0.2108911892732685	-0.00213375342393322	0.6565375293104009	1.348190155981519	-0.2543583816826244	0.09820804724928886	-0.785398051878701	1.47491355231261	1.474913552312606	0.04977051025919135	0.1745309235667765	0.4362509510163711	0.1409104306594269	0.07301391782178979	0.005645050083862906	0.01461204561829206	-0.1026986000402369	-0.001447268719380725	-0.01043548524552639	-1.240002115150745e-05	-0.01569624899004901	-0.01569624899004882	-0.004429376298979929	-2.146343583568131e-05	0.01420799828594249	0.004015182072259199	-0.3181928599851578	0.02576022271037222	0.05100693223615872	-0.4607958939777931	-0.02871446706169777	-0.01848397884391077	0.3480495634407272	-0.04052646993922752	-61.76127692267372	-22.11562177992883	7.687552659158063	9.030419067215528	-761.5708744700638	65.61839206551765	1.268036830343414	0.1340210754344094	1.683541707369205	-5.112655676823074	-0.08189273501836911	-1.512270326609803	-0.01822885880109042	-4.834281075254692	-4.834281075254721	0.1031224609792533	0.001770589088981902	-1.226426539401309	-0.6756534339877937	-1.450253659744283e-10	-2.361710087801668e-09	-8.667347675601324e-09	4.139103912233523e-10	4.886827721363626e-09	-5.938572849420536e-09	-1.894675233210251e-08
1.01	-0.2100980752630085	-0.00207036044737208	0.6567677200867666	1.346907868627489	-0.2543768803736708	0.09802815293057032	-0.7853968671884434	1.474515247547044	1.474515247547038	0.04973121082723925	0.1745306004389917	0.4363322374864264	0.1409171587192391	0.08563398180592006	0.007060790586290239	0.03142895114961042	-0.1538193861857968	-0.002256012570355899	-0.02553056442577327	0.0003932690696545463	-0.06395092100824155	-0.06395092100824171	-0.003418356390215149	-4.060929230626486e-05	0.002100182683866184	-0.002653154670161232	-0.3192589825530908	0.02584140624170437	0.05098069280844659	-0.4604944895888317	-0.02925166336145628	-0.01839761395838599	0.34936020750166	-0.04051382629368661	-61.9595576942737	-22.1015073187035	7.672367892355714	8.799363662572395	-762.2928021871512	65.62003811046468	1.262755964237352	0.1494393317880071	1.681189176272327	-5.120867566241683	-0.08089595893606216	-1.506205873848323	0.09155444214089564	-4.818992635399143	-4.818992635399153	0.1019156615627877	-0.003376057887356099	-1.195326458311417	-0.6599632291929864	-8.056898589334864e-10	-4.971939309545296e-09	-9.110723639898297e-09	-3.569356007519356e-09	9.902023835223686e-09	-1.007782986673417e-08	-2.594357101582305e-08
1.02	-0.2091780076565502	-0.001991992306958242	0.6571661647584983	1.345112557915432	-0.2544035726529854	0.09769769198802025	-0.7853873078774366	1.473634809587237	1.473634809587233	0.04970238637550986	0.1745301620756676	0.436293972323033	0.1408576955246628	0.09840463706163163	0.008640082854402407	0.0482628246913021	-0.2053032716441202	-0.003085986373288601	-0.04054881001066892	0.00166252412523523	-0.1121228878383347	-0.1121228878383351	-0.002334380251943533	-4.45105436678479e-05	-0.009702328426235076	-0.009223068805534229	-0.3203251051210582	0.0259225897730295	0.05095445338079747	-0.4601930851998693	-0.0297888596612132	-0.01831124907287482	0.3506708515625598	-0.04050686591430257	-62.16544096054933	-22.08575945018248	7.653536739841189	8.576286314169673	-763.1564852992751	65.62210489476632	1.298155084659715	0.1667314285713468	1.686935309443865	-5.185275539375732	-0.08613872540986917	-1.496903607539563	0.1544883341537792	-4.817740037634806	-4.817740037634814	0.1177137068806075	0.00481951011078092	-1.165365641006351	-0.655968912578319	-1.214034706302407e-09	-4.313366106343859e-09	-3.049033455421958e-09	-8.391217325669091e-09	7.586364702562966e-09	-1.199307657437465e-08	-1.945876166545799e-08
1.03	-0.2081307960657078	-0.001897158268264701	0.6577328455000765	1.342802301271197	-0.2544386049771367	0.09721747107838062	-0.7853597577722794	1.472272917214658	1.472272917214655	0.0496847766555135	0.174529745760627	0.4361386474823099	0.1407329143571936	0.1109296236423773	0.01033965638318018	0.06505716400998772	-0.256635860123849	-0.003917708812651633	-0.05548005385827408	0.004091901799212022	-0.1602563121803536	-0.1602563121803534	-0.001175353920328844	-3.683835325984903e-05	-0.02136780385700731	-0.01572837183071331	-0.320750891766325	0.02598237850577734	0.0509198021805255	-0.4598210201808717	-0.03020286420282374	-0.01823222180434836	0.3514693434169884	-0.04052799630722324	-62.31007141396543	-22.05989317481167	7.630144964976417	8.502190808085102	-763.5912912031879	65.61869398493383	1.213461821105975	0.1735110645892936	1.673256512317708	-5.09042126960995	-0.08127469606336589	-1.488940017571837	0.3238232179399924	-4.811252131471196	-4.811252131471078	0.1168308918599793	-0.000974727917321372	-1.167913571278877	-0.6470930845843488	-1.619804863410201e-09	-3.62143777635725e-09	3.079034955062308e-09	-1.322163573483319e-08	5.195900924529543e-09	-1.388562929926336e-08	-1.283638468209198e-08
